<?xml version="1.0" encoding="UTF-8" standalone="no"?>
<!DOCTYPE svg PUBLIC "-//W3C//DTD SVG 1.1//EN"
 "http://www.w3.org/Graphics/SVG/1.1/DTD/svg11.dtd">
<!-- Generated by graphviz version 2.43.0 (0)
 -->
<!-- Pages: 1 -->
<svg width="464pt" height="948pt"
 viewBox="0.00 0.00 463.50 948.00" xmlns="http://www.w3.org/2000/svg" xmlns:xlink="http://www.w3.org/1999/xlink">
<g id="graph0" class="graph" transform="scale(1 1) rotate(0) translate(4 944)">
<polygon fill="white" stroke="transparent" points="-4,4 -4,-944 459.5,-944 459.5,4 -4,4"/>
<!-- 7 -->
<g id="node1" class="node">
<title>7</title>
<g id="a_node1"><a xlink:href="/api/cfg/0x401090" xlink:title="Click to navigate to function 0x401090">
<path fill="none" stroke="black" d="M91,-737.5C91,-737.5 370,-737.5 370,-737.5 376,-737.5 382,-743.5 382,-749.5 382,-749.5 382,-927.5 382,-927.5 382,-933.5 376,-939.5 370,-939.5 370,-939.5 91,-939.5 91,-939.5 85,-939.5 79,-933.5 79,-927.5 79,-927.5 79,-749.5 79,-749.5 79,-743.5 85,-737.5 91,-737.5"/>
<text text-anchor="start" x="173.5" y="-925.6" font-family="monospace" font-size="8.00">0x4011b4</text>
<text text-anchor="start" x="214.5" y="-925.6" font-family="monospace" font-size="8.00">(0x4011b4)</text>
<text text-anchor="start" x="264.5" y="-926.6" font-family="monospace" font-weight="bold" font-size="8.00">main</text>
<polyline fill="none" stroke="black" points="79,-916.5 382,-916.5 "/>
<text text-anchor="start" x="90.5" y="-902.6" font-family="monospace" font-size="8.00">0x004011b4: </text>
<text text-anchor="start" x="149.5" y="-902.6" font-family="monospace" font-size="8.00">endbr64</text>
<text text-anchor="start" x="90.5" y="-889.6" font-family="monospace" font-size="8.00">0x004011b8: </text>
<text text-anchor="start" x="149.5" y="-889.6" font-family="monospace" font-size="8.00">push</text>
<text text-anchor="start" x="185.5" y="-889.6" font-family="monospace" font-size="8.00">rbp</text>
<text text-anchor="start" x="90.5" y="-876.6" font-family="monospace" font-size="8.00">0x004011b9: </text>
<text text-anchor="start" x="149.5" y="-876.6" font-family="monospace" font-size="8.00">mov</text>
<text text-anchor="start" x="185.5" y="-876.6" font-family="monospace" font-size="8.00">rbp, rsp</text>
<text text-anchor="start" x="90.5" y="-863.6" font-family="monospace" font-size="8.00">0x004011bc: </text>
<text text-anchor="start" x="149.5" y="-863.6" font-family="monospace" font-size="8.00">sub</text>
<text text-anchor="start" x="185.5" y="-863.6" font-family="monospace" font-size="8.00">rsp, 0x10</text>
<text text-anchor="start" x="90.5" y="-850.6" font-family="monospace" font-size="8.00">0x004011c0: </text>
<text text-anchor="start" x="149.5" y="-850.6" font-family="monospace" font-size="8.00">mov</text>
<text text-anchor="start" x="185.5" y="-850.6" font-family="monospace" font-size="8.00">rax, qword ptr fs:[0x28]</text>
<text text-anchor="start" x="90.5" y="-837.6" font-family="monospace" font-size="8.00">0x004011c9: </text>
<text text-anchor="start" x="149.5" y="-837.6" font-family="monospace" font-size="8.00">mov</text>
<text text-anchor="start" x="185.5" y="-837.6" font-family="monospace" font-size="8.00">qword ptr [rbp &#45; 8], rax</text>
<text text-anchor="start" x="90.5" y="-824.6" font-family="monospace" font-size="8.00">0x004011cd: </text>
<text text-anchor="start" x="149.5" y="-824.6" font-family="monospace" font-size="8.00">xor</text>
<text text-anchor="start" x="185.5" y="-824.6" font-family="monospace" font-size="8.00">eax, eax</text>
<text text-anchor="start" x="90.5" y="-811.6" font-family="monospace" font-size="8.00">0x004011cf: </text>
<text text-anchor="start" x="149.5" y="-811.6" font-family="monospace" font-size="8.00">lea</text>
<text text-anchor="start" x="185.5" y="-811.6" font-family="monospace" font-size="8.00">rax, [rbp &#45; 0xc]</text>
<text text-anchor="start" x="90.5" y="-798.6" font-family="monospace" font-size="8.00">0x004011d3: </text>
<text text-anchor="start" x="149.5" y="-798.6" font-family="monospace" font-size="8.00">mov</text>
<text text-anchor="start" x="185.5" y="-798.6" font-family="monospace" font-size="8.00">rsi, rax</text>
<text text-anchor="start" x="90.5" y="-785.6" font-family="monospace" font-size="8.00">0x004011d6: </text>
<text text-anchor="start" x="149.5" y="-785.6" font-family="monospace" font-size="8.00">lea</text>
<text text-anchor="start" x="185.5" y="-785.6" font-family="monospace" font-size="8.00">rax, [rip + 0xe27]</text>
<text text-anchor="start" x="90.5" y="-772.6" font-family="monospace" font-size="8.00">0x004011dd: </text>
<text text-anchor="start" x="149.5" y="-772.6" font-family="monospace" font-size="8.00">mov</text>
<text text-anchor="start" x="185.5" y="-772.6" font-family="monospace" font-size="8.00">rdi, rax</text>
<text text-anchor="start" x="90.5" y="-759.6" font-family="monospace" font-size="8.00">0x004011e0: </text>
<text text-anchor="start" x="149.5" y="-759.6" font-family="monospace" font-size="8.00">mov</text>
<text text-anchor="start" x="185.5" y="-759.6" font-family="monospace" font-size="8.00">eax, 0</text>
<text text-anchor="start" x="90.5" y="-746.6" font-family="monospace" font-size="8.00">0x004011e5: </text>
<text text-anchor="start" x="149.5" y="-746.6" font-family="monospace" font-size="8.00">call</text>
<text text-anchor="start" x="185.5" y="-746.6" font-family="monospace" font-size="8.00">0x401090</text>
<text text-anchor="start" x="298.5" y="-746.6" font-family="monospace" font-size="8.00" fill="gray">; __isoc99_scanf</text>
</a>
</g>
</g>
<!-- 29 -->
<g id="node2" class="node">
<title>29</title>
<g id="a_node2"><a xlink:href="/api/cfg/0x401189" xlink:title="Click to navigate to function 0x401189">
<path fill="none" stroke="black" d="M118,-628.5C118,-628.5 343,-628.5 343,-628.5 349,-628.5 355,-634.5 355,-640.5 355,-640.5 355,-688.5 355,-688.5 355,-694.5 349,-700.5 343,-700.5 343,-700.5 118,-700.5 118,-700.5 112,-700.5 106,-694.5 106,-688.5 106,-688.5 106,-640.5 106,-640.5 106,-634.5 112,-628.5 118,-628.5"/>
<text text-anchor="start" x="162.5" y="-686.6" font-family="monospace" font-size="8.00">0x4011ea</text>
<text text-anchor="start" x="203.5" y="-686.6" font-family="monospace" font-size="8.00">(0x4011b4)</text>
<text text-anchor="start" x="253.5" y="-687.6" font-family="monospace" font-weight="bold" font-size="8.00">main+0x36</text>
<polyline fill="none" stroke="black" points="106,-677.5 355,-677.5 "/>
<text text-anchor="start" x="117.5" y="-663.6" font-family="monospace" font-size="8.00">0x004011ea: </text>
<text text-anchor="start" x="176.5" y="-663.6" font-family="monospace" font-size="8.00">mov</text>
<text text-anchor="start" x="199.5" y="-663.6" font-family="monospace" font-size="8.00">eax, dword ptr [rbp &#45; 0xc]</text>
<text text-anchor="start" x="117.5" y="-650.6" font-family="monospace" font-size="8.00">0x004011ed: </text>
<text text-anchor="start" x="176.5" y="-650.6" font-family="monospace" font-size="8.00">mov</text>
<text text-anchor="start" x="199.5" y="-650.6" font-family="monospace" font-size="8.00">edi, eax</text>
<text text-anchor="start" x="117.5" y="-637.6" font-family="monospace" font-size="8.00">0x004011ef: </text>
<text text-anchor="start" x="176.5" y="-637.6" font-family="monospace" font-size="8.00">call</text>
<text text-anchor="start" x="199.5" y="-637.6" font-family="monospace" font-size="8.00">0x401189</text>
<text text-anchor="start" x="321.5" y="-637.6" font-family="monospace" font-size="8.00" fill="gray">; fun</text>
</a>
</g>
</g>
<!-- 7&#45;&gt;29 -->
<g id="edge1" class="edge">
<title>7&#45;&gt;29</title>
<path fill="none" stroke="gray" stroke-dasharray="1,5" d="M230.5,-737.45C230.5,-728.2 230.5,-719.17 230.5,-710.81"/>
<polygon fill="gray" stroke="gray" points="234,-710.61 230.5,-700.61 227,-710.61 234,-710.61"/>
</g>
<!-- 31 -->
<g id="node3" class="node">
<title>31</title>
<path fill="none" stroke="black" d="M132,-519.5C132,-519.5 329,-519.5 329,-519.5 335,-519.5 341,-525.5 341,-531.5 341,-531.5 341,-579.5 341,-579.5 341,-585.5 335,-591.5 329,-591.5 329,-591.5 132,-591.5 132,-591.5 126,-591.5 120,-585.5 120,-579.5 120,-579.5 120,-531.5 120,-531.5 120,-525.5 126,-519.5 132,-519.5"/>
<text text-anchor="start" x="162.5" y="-577.6" font-family="monospace" font-size="8.00">0x4011f4</text>
<text text-anchor="start" x="203.5" y="-577.6" font-family="monospace" font-size="8.00">(0x4011b4)</text>
<text text-anchor="start" x="253.5" y="-578.6" font-family="monospace" font-weight="bold" font-size="8.00">main+0x40</text>
<polyline fill="none" stroke="black" points="120,-568.5 341,-568.5 "/>
<text text-anchor="start" x="131.5" y="-554.6" font-family="monospace" font-size="8.00">0x004011f4: </text>
<text text-anchor="start" x="190.5" y="-554.6" font-family="monospace" font-size="8.00">mov</text>
<text text-anchor="start" x="208.5" y="-554.6" font-family="monospace" font-size="8.00">eax, dword ptr [rbp &#45; 0xc]</text>
<text text-anchor="start" x="131.5" y="-541.6" font-family="monospace" font-size="8.00">0x004011f7: </text>
<text text-anchor="start" x="190.5" y="-541.6" font-family="monospace" font-size="8.00">cmp</text>
<text text-anchor="start" x="208.5" y="-541.6" font-family="monospace" font-size="8.00">eax, 1</text>
<text text-anchor="start" x="131.5" y="-528.6" font-family="monospace" font-size="8.00">0x004011fa: </text>
<text text-anchor="start" x="190.5" y="-528.6" font-family="monospace" font-size="8.00">jle</text>
<text text-anchor="start" x="208.5" y="-528.6" font-family="monospace" font-size="8.00">0x401205</text>
</g>
<!-- 29&#45;&gt;31 -->
<g id="edge2" class="edge">
<title>29&#45;&gt;31</title>
<path fill="none" stroke="gray" stroke-dasharray="1,5" d="M230.5,-628.46C230.5,-619.97 230.5,-610.76 230.5,-601.86"/>
<polygon fill="gray" stroke="gray" points="234,-601.61 230.5,-591.61 227,-601.61 234,-601.61"/>
</g>
<!-- 32 -->
<g id="node4" class="node">
<title>32</title>
<path fill="none" stroke="black" d="M12,-423.5C12,-423.5 213,-423.5 213,-423.5 219,-423.5 225,-429.5 225,-435.5 225,-435.5 225,-470.5 225,-470.5 225,-476.5 219,-482.5 213,-482.5 213,-482.5 12,-482.5 12,-482.5 6,-482.5 0,-476.5 0,-470.5 0,-470.5 0,-435.5 0,-435.5 0,-429.5 6,-423.5 12,-423.5"/>
<text text-anchor="start" x="44.5" y="-468.6" font-family="monospace" font-size="8.00">0x4011fc</text>
<text text-anchor="start" x="85.5" y="-468.6" font-family="monospace" font-size="8.00">(0x4011b4)</text>
<text text-anchor="start" x="135.5" y="-469.6" font-family="monospace" font-weight="bold" font-size="8.00">main+0x48</text>
<polyline fill="none" stroke="black" points="0,-459.5 225,-459.5 "/>
<text text-anchor="start" x="11.5" y="-446.1" font-family="monospace" font-size="8.00">0x004011fc: </text>
<text text-anchor="start" x="70.5" y="-446.1" font-family="monospace" font-size="8.00">mov</text>
<text text-anchor="start" x="88.5" y="-446.1" font-family="monospace" font-size="8.00">dword ptr [rbp &#45; 0xc], 0x64</text>
<text text-anchor="start" x="11.5" y="-433.1" font-family="monospace" font-size="8.00">0x00401203: </text>
<text text-anchor="start" x="70.5" y="-433.1" font-family="monospace" font-size="8.00">jmp</text>
<text text-anchor="start" x="88.5" y="-433.1" font-family="monospace" font-size="8.00">0x40120c</text>
</g>
<!-- 31&#45;&gt;32 -->
<g id="edge3" class="edge">
<title>31&#45;&gt;32</title>
<path fill="none" stroke="red" d="M189.23,-519.35C177.78,-509.6 165.35,-499.01 153.9,-489.26"/>
<polygon fill="red" stroke="red" points="156.03,-486.48 146.15,-482.66 151.49,-491.8 156.03,-486.48"/>
</g>
<!-- 55 -->
<g id="node5" class="node">
<title>55</title>
<path fill="none" stroke="black" d="M255.5,-430C255.5,-430 443.5,-430 443.5,-430 449.5,-430 455.5,-436 455.5,-442 455.5,-442 455.5,-464 455.5,-464 455.5,-470 449.5,-476 443.5,-476 443.5,-476 255.5,-476 255.5,-476 249.5,-476 243.5,-470 243.5,-464 243.5,-464 243.5,-442 243.5,-442 243.5,-436 249.5,-430 255.5,-430"/>
<text text-anchor="start" x="281.5" y="-462.1" font-family="monospace" font-size="8.00">0x401205</text>
<text text-anchor="start" x="322.5" y="-462.1" font-family="monospace" font-size="8.00">(0x4011b4)</text>
<text text-anchor="start" x="372.5" y="-463.1" font-family="monospace" font-weight="bold" font-size="8.00">main+0x51</text>
<polyline fill="none" stroke="black" points="243.5,-453 455.5,-453 "/>
<text text-anchor="start" x="254.5" y="-439.1" font-family="monospace" font-size="8.00">0x00401205: </text>
<text text-anchor="start" x="313.5" y="-439.1" font-family="monospace" font-size="8.00">mov</text>
<text text-anchor="start" x="331.5" y="-439.1" font-family="monospace" font-size="8.00">dword ptr [rbp &#45; 0xc], 1</text>
</g>
<!-- 31&#45;&gt;55 -->
<g id="edge4" class="edge">
<title>31&#45;&gt;55</title>
<path fill="none" stroke="green" d="M272.12,-519.35C286.35,-507.33 302.09,-494.04 315.63,-482.6"/>
<polygon fill="green" stroke="green" points="317.94,-485.23 323.33,-476.11 313.43,-479.88 317.94,-485.23"/>
</g>
<!-- 35 -->
<g id="node6" class="node">
<title>35</title>
<path fill="none" stroke="black" d="M129.5,-314.5C129.5,-314.5 331.5,-314.5 331.5,-314.5 337.5,-314.5 343.5,-320.5 343.5,-326.5 343.5,-326.5 343.5,-374.5 343.5,-374.5 343.5,-380.5 337.5,-386.5 331.5,-386.5 331.5,-386.5 129.5,-386.5 129.5,-386.5 123.5,-386.5 117.5,-380.5 117.5,-374.5 117.5,-374.5 117.5,-326.5 117.5,-326.5 117.5,-320.5 123.5,-314.5 129.5,-314.5"/>
<text text-anchor="start" x="162.5" y="-372.6" font-family="monospace" font-size="8.00">0x40120c</text>
<text text-anchor="start" x="203.5" y="-372.6" font-family="monospace" font-size="8.00">(0x4011b4)</text>
<text text-anchor="start" x="253.5" y="-373.6" font-family="monospace" font-weight="bold" font-size="8.00">main+0x58</text>
<polyline fill="none" stroke="black" points="117.5,-363.5 343.5,-363.5 "/>
<text text-anchor="start" x="128.5" y="-349.6" font-family="monospace" font-size="8.00">0x0040120c: </text>
<text text-anchor="start" x="187.5" y="-349.6" font-family="monospace" font-size="8.00">mov</text>
<text text-anchor="start" x="210.5" y="-349.6" font-family="monospace" font-size="8.00">eax, dword ptr [rbp &#45; 0xc]</text>
<text text-anchor="start" x="128.5" y="-336.6" font-family="monospace" font-size="8.00">0x0040120f: </text>
<text text-anchor="start" x="187.5" y="-336.6" font-family="monospace" font-size="8.00">test</text>
<text text-anchor="start" x="210.5" y="-336.6" font-family="monospace" font-size="8.00">eax, eax</text>
<text text-anchor="start" x="128.5" y="-323.6" font-family="monospace" font-size="8.00">0x00401211: </text>
<text text-anchor="start" x="187.5" y="-323.6" font-family="monospace" font-size="8.00">je</text>
<text text-anchor="start" x="210.5" y="-323.6" font-family="monospace" font-size="8.00">0x40121d</text>
</g>
<!-- 32&#45;&gt;35 -->
<g id="edge5" class="edge">
<title>32&#45;&gt;35</title>
<path fill="none" stroke="blue" d="M146,-423.47C157.07,-414.04 169.61,-403.36 181.59,-393.15"/>
<polygon fill="blue" stroke="blue" points="184.02,-395.69 189.36,-386.54 179.48,-390.36 184.02,-395.69"/>
</g>
<!-- 55&#45;&gt;35 -->
<g id="edge11" class="edge">
<title>55&#45;&gt;35</title>
<path fill="none" stroke="blue" stroke-dasharray="5,2" d="M323.38,-429.94C310.57,-419.12 294.69,-405.71 279.72,-393.07"/>
<polygon fill="blue" stroke="blue" points="281.89,-390.32 271.99,-386.54 277.37,-395.66 281.89,-390.32"/>
</g>
<!-- 34 -->
<g id="node7" class="node">
<title>34</title>
<g id="a_node7"><a xlink:href="/api/cfg/0x401189" xlink:title="Click to navigate to function 0x401189">
<path fill="none" stroke="black" d="M102.5,-218.5C102.5,-218.5 246.5,-218.5 246.5,-218.5 252.5,-218.5 258.5,-224.5 258.5,-230.5 258.5,-230.5 258.5,-265.5 258.5,-265.5 258.5,-271.5 252.5,-277.5 246.5,-277.5 246.5,-277.5 102.5,-277.5 102.5,-277.5 96.5,-277.5 90.5,-271.5 90.5,-265.5 90.5,-265.5 90.5,-230.5 90.5,-230.5 90.5,-224.5 96.5,-218.5 102.5,-218.5"/>
<text text-anchor="start" x="106.5" y="-263.6" font-family="monospace" font-size="8.00">0x401213</text>
<text text-anchor="start" x="147.5" y="-263.6" font-family="monospace" font-size="8.00">(0x4011b4)</text>
<text text-anchor="start" x="197.5" y="-264.6" font-family="monospace" font-weight="bold" font-size="8.00">main+0x5f</text>
<polyline fill="none" stroke="black" points="90.5,-254.5 258.5,-254.5 "/>
<text text-anchor="start" x="101.5" y="-241.1" font-family="monospace" font-size="8.00">0x00401213: </text>
<text text-anchor="start" x="160.5" y="-241.1" font-family="monospace" font-size="8.00">mov</text>
<text text-anchor="start" x="183.5" y="-241.1" font-family="monospace" font-size="8.00">edi, 1</text>
<text text-anchor="start" x="101.5" y="-228.1" font-family="monospace" font-size="8.00">0x00401218: </text>
<text text-anchor="start" x="160.5" y="-228.1" font-family="monospace" font-size="8.00">call</text>
<text text-anchor="start" x="183.5" y="-228.1" font-family="monospace" font-size="8.00">0x401189</text>
<text text-anchor="start" x="224.5" y="-228.1" font-family="monospace" font-size="8.00" fill="gray">; fun</text>
</a>
</g>
</g>
<!-- 35&#45;&gt;34 -->
<g id="edge10" class="edge">
<title>35&#45;&gt;34</title>
<path fill="none" stroke="red" d="M210.91,-314.35C205.9,-305.35 200.49,-295.64 195.41,-286.52"/>
<polygon fill="red" stroke="red" points="198.39,-284.69 190.47,-277.66 192.28,-288.1 198.39,-284.69"/>
</g>
<!-- 33 -->
<g id="node8" class="node">
<title>33</title>
<path fill="none" stroke="black" d="M136.5,-96.5C136.5,-96.5 324.5,-96.5 324.5,-96.5 330.5,-96.5 336.5,-102.5 336.5,-108.5 336.5,-108.5 336.5,-169.5 336.5,-169.5 336.5,-175.5 330.5,-181.5 324.5,-181.5 324.5,-181.5 136.5,-181.5 136.5,-181.5 130.5,-181.5 124.5,-175.5 124.5,-169.5 124.5,-169.5 124.5,-108.5 124.5,-108.5 124.5,-102.5 130.5,-96.5 136.5,-96.5"/>
<text text-anchor="start" x="162.5" y="-167.6" font-family="monospace" font-size="8.00">0x40121d</text>
<text text-anchor="start" x="203.5" y="-167.6" font-family="monospace" font-size="8.00">(0x4011b4)</text>
<text text-anchor="start" x="253.5" y="-168.6" font-family="monospace" font-weight="bold" font-size="8.00">main+0x69</text>
<polyline fill="none" stroke="black" points="124.5,-158.5 336.5,-158.5 "/>
<text text-anchor="start" x="135.5" y="-145.1" font-family="monospace" font-size="8.00">0x0040121d: </text>
<text text-anchor="start" x="194.5" y="-145.1" font-family="monospace" font-size="8.00">mov</text>
<text text-anchor="start" x="212.5" y="-145.1" font-family="monospace" font-size="8.00">eax, 0</text>
<text text-anchor="start" x="135.5" y="-132.1" font-family="monospace" font-size="8.00">0x00401222: </text>
<text text-anchor="start" x="194.5" y="-132.1" font-family="monospace" font-size="8.00">mov</text>
<text text-anchor="start" x="212.5" y="-132.1" font-family="monospace" font-size="8.00">rdx, qword ptr [rbp &#45; 8]</text>
<text text-anchor="start" x="135.5" y="-119.1" font-family="monospace" font-size="8.00">0x00401226: </text>
<text text-anchor="start" x="194.5" y="-119.1" font-family="monospace" font-size="8.00">sub</text>
<text text-anchor="start" x="212.5" y="-119.1" font-family="monospace" font-size="8.00">rdx, qword ptr fs:[0x28]</text>
<text text-anchor="start" x="135.5" y="-106.1" font-family="monospace" font-size="8.00">0x0040122f: </text>
<text text-anchor="start" x="194.5" y="-106.1" font-family="monospace" font-size="8.00">je</text>
<text text-anchor="start" x="212.5" y="-106.1" font-family="monospace" font-size="8.00">0x401236</text>
</g>
<!-- 35&#45;&gt;33 -->
<g id="edge9" class="edge">
<title>35&#45;&gt;33</title>
<path fill="none" stroke="green" d="M252.85,-314.45C258.82,-303.24 264.46,-290.49 267.5,-278 273.81,-252.09 273.36,-244.02 267.5,-218 265.47,-208.98 262.27,-199.78 258.58,-191.01"/>
<polygon fill="green" stroke="green" points="261.69,-189.39 254.42,-181.68 255.3,-192.24 261.69,-189.39"/>
</g>
<!-- 34&#45;&gt;33 -->
<g id="edge8" class="edge">
<title>34&#45;&gt;33</title>
<path fill="none" stroke="gray" stroke-dasharray="1,5" d="M189.51,-218.33C193.98,-209.79 199.01,-200.17 203.98,-190.66"/>
<polygon fill="gray" stroke="gray" points="207.18,-192.11 208.71,-181.63 200.97,-188.87 207.18,-192.11"/>
</g>
<!-- 37 -->
<g id="node9" class="node">
<title>37</title>
<g id="a_node9"><a xlink:href="/api/cfg/0x401070" xlink:title="Click to navigate to function 0x401070">
<path fill="none" stroke="black" d="M24,-7C24,-7 227,-7 227,-7 233,-7 239,-13 239,-19 239,-19 239,-41 239,-41 239,-47 233,-53 227,-53 227,-53 24,-53 24,-53 18,-53 12,-47 12,-41 12,-41 12,-19 12,-19 12,-13 18,-7 24,-7"/>
<text text-anchor="start" x="57.5" y="-39.1" font-family="monospace" font-size="8.00">0x401231</text>
<text text-anchor="start" x="98.5" y="-39.1" font-family="monospace" font-size="8.00">(0x4011b4)</text>
<text text-anchor="start" x="148.5" y="-40.1" font-family="monospace" font-weight="bold" font-size="8.00">main+0x7d</text>
<polyline fill="none" stroke="black" points="12,-30 239,-30 "/>
<text text-anchor="start" x="23.5" y="-16.1" font-family="monospace" font-size="8.00">0x00401231: </text>
<text text-anchor="start" x="82.5" y="-16.1" font-family="monospace" font-size="8.00">call</text>
<text text-anchor="start" x="105.5" y="-16.1" font-family="monospace" font-size="8.00">0x401070</text>
<text text-anchor="start" x="146.5" y="-16.1" font-family="monospace" font-size="8.00" fill="gray">; __stack_chk_fail</text>
</a>
</g>
</g>
<!-- 33&#45;&gt;37 -->
<g id="edge7" class="edge">
<title>33&#45;&gt;37</title>
<path fill="none" stroke="red" d="M189.6,-96.32C177.91,-84.41 165.4,-71.66 154.57,-60.62"/>
<polygon fill="red" stroke="red" points="156.87,-57.97 147.37,-53.29 151.88,-62.88 156.87,-57.97"/>
</g>
<!-- 36 -->
<g id="node10" class="node">
<title>36</title>
<path fill="none" stroke="black" d="M269.5,-0.5C269.5,-0.5 403.5,-0.5 403.5,-0.5 409.5,-0.5 415.5,-6.5 415.5,-12.5 415.5,-12.5 415.5,-47.5 415.5,-47.5 415.5,-53.5 409.5,-59.5 403.5,-59.5 403.5,-59.5 269.5,-59.5 269.5,-59.5 263.5,-59.5 257.5,-53.5 257.5,-47.5 257.5,-47.5 257.5,-12.5 257.5,-12.5 257.5,-6.5 263.5,-0.5 269.5,-0.5"/>
<text text-anchor="start" x="268.5" y="-45.6" font-family="monospace" font-size="8.00">0x401236</text>
<text text-anchor="start" x="309.5" y="-45.6" font-family="monospace" font-size="8.00">(0x4011b4)</text>
<text text-anchor="start" x="359.5" y="-46.6" font-family="monospace" font-weight="bold" font-size="8.00">main+0x82</text>
<polyline fill="none" stroke="black" points="257.5,-36.5 415.5,-36.5 "/>
<text text-anchor="start" x="291.5" y="-23.1" font-family="monospace" font-size="8.00">0x00401236: </text>
<text text-anchor="start" x="350.5" y="-23.1" font-family="monospace" font-size="8.00">leave</text>
<text text-anchor="start" x="291.5" y="-10.1" font-family="monospace" font-size="8.00">0x00401237: </text>
<text text-anchor="start" x="350.5" y="-10.1" font-family="monospace" font-size="8.00">ret</text>
</g>
<!-- 33&#45;&gt;36 -->
<g id="edge6" class="edge">
<title>33&#45;&gt;36</title>
<path fill="none" stroke="green" d="M271.79,-96.32C281.42,-86.6 291.59,-76.33 300.95,-66.88"/>
<polygon fill="green" stroke="green" points="303.71,-69.08 308.26,-59.51 298.73,-64.15 303.71,-69.08"/>
</g>
</g>
</svg>
